<?xml version="1.0" standalone="no"?>
<!DOCTYPE svg PUBLIC "-//W3C//DTD SVG 20010904//EN"
 "http://www.w3.org/TR/2001/REC-SVG-20010904/DTD/svg10.dtd">
<svg version="1.0" xmlns="http://www.w3.org/2000/svg"
 width="120.000000pt" height="120.000000pt" viewBox="0 0 120.000000 120.000000"
 preserveAspectRatio="xMidYMid meet">
<metadata>
Created by potrace 1.16, written by Peter Selinger 2001-2019
</metadata>
<g transform="translate(0.000000,120.000000) scale(0.100000,-0.100000)"
fill="#000000" stroke="none">
<path d="M690 1020 c-13 -11 -29 -20 -37 -20 -7 0 -13 -4 -13 -9 0 -9 -58 -48
-92 -63 -10 -4 -18 -12 -18 -18 0 -5 -6 -10 -13 -10 -25 0 -57 -45 -57 -81 0
-19 -6 -45 -13 -59 -7 -14 -19 -59 -27 -100 -7 -41 -17 -79 -22 -85 -4 -5 -43
-11 -86 -15 l-77 -5 -3 -32 c-2 -24 1 -33 17 -38 11 -3 22 -18 26 -35 4 -17
12 -33 18 -37 7 -4 54 -8 105 -10 88 -1 95 0 114 23 19 21 30 24 84 24 54 0
67 -4 88 -25 45 -45 114 -29 184 40 2 2 -1 20 -8 40 -15 44 -1 65 41 65 34 0
39 25 13 65 -9 14 -14 32 -10 40 3 8 -6 26 -19 41 -14 15 -25 34 -25 43 0 9
-4 23 -10 31 -7 12 -10 11 -16 -5 -4 -11 -22 -37 -40 -59 -18 -21 -32 -48 -31
-58 1 -11 -5 -25 -15 -31 -21 -14 -48 7 -48 38 0 26 -22 35 -86 35 l-42 0 -4
-65 c-5 -76 -14 -90 -51 -76 -21 8 -27 17 -27 41 0 17 6 43 14 58 7 15 17 45
20 66 4 21 15 51 23 65 21 32 99 111 112 111 5 0 11 7 15 15 3 9 18 15 38 15
40 0 65 -24 109 -108 15 -28 33 -24 37 10 2 16 -12 50 -39 94 -70 114 -84 123
-129 84z"/>
</g>
</svg>
